HIERARCHY
ROOT Hips
{
	OFFSET 46.724998 9.682036 84.163399
	CHANNELS 6 Xposition Yposition Zposition Xrotation Yrotation Zrotation
	JOINT spine
	{
		OFFSET 0.000000 -0.359108 6.244797
		CHANNELS 3 Xrotation Yrotation Zrotation
		JOINT spine1
		{
			OFFSET 0.000000 -0.000002 9.069412
			CHANNELS 3 Xrotation Yrotation Zrotation
			JOINT spine2
			{
				OFFSET 0.000000 -0.000001 8.690140
				CHANNELS 3 Xrotation Yrotation Zrotation
				JOINT Neck
				{
					OFFSET 0.000000 -1.063724 22.311195
					CHANNELS 3 Xrotation Yrotation Zrotation
					JOINT Head
					{
						OFFSET 0.000000 -0.000001 6.740814
						CHANNELS 3 Xrotation Yrotation Zrotation
						End Site
						{
							OFFSET 0.000000 5.380967 16.316498
						}
					}
				}
				JOINT RightShoulder
				{
					OFFSET -3.659161 0.509512 9.384682
					CHANNELS 3 Xrotation Yrotation Zrotation
					JOINT RightArm
					{
						OFFSET 0.000000 -0.000002 12.308899
						CHANNELS 3 Xrotation Yrotation Zrotation
						JOINT RightArmRoll
						{
							OFFSET 0.000000 -0.000001 6.213745
							CHANNELS 3 Xrotation Yrotation Zrotation
							JOINT RightForeArm
							{
								OFFSET 0.000000 -0.000003 18.098495
								CHANNELS 3 Xrotation Yrotation Zrotation
								JOINT RightForeArmRoll
								{
									OFFSET 0.000000 -0.000002 6.972794
									CHANNELS 3 Xrotation Yrotation Zrotation
									JOINT RightHand
									{
										OFFSET 0.000000 -0.000002 13.992905
										CHANNELS 3 Xrotation Yrotation Zrotation
										End Site
										{
											OFFSET 0.000000 0.000000 0.100006
										}
									}
								}
							}
						}
					}
				}
				JOINT LeftShoulder
				{
					OFFSET 3.659161 0.509512 9.384682
					CHANNELS 3 Xrotation Yrotation Zrotation
					JOINT LeftArm
					{
						OFFSET 0.000000 -0.000002 12.308899
						CHANNELS 3 Xrotation Yrotation Zrotation
						JOINT LeftArmRoll
						{
							OFFSET 0.000000 -0.000001 6.213745
							CHANNELS 3 Xrotation Yrotation Zrotation
							JOINT LeftForeArm
							{
								OFFSET 0.000000 -0.000003 18.098495
								CHANNELS 3 Xrotation Yrotation Zrotation
								JOINT LeftForeArmRoll
								{
									OFFSET 0.000000 -0.000002 6.972794
									CHANNELS 3 Xrotation Yrotation Zrotation
									JOINT LeftHand
									{
										OFFSET 0.000000 -0.000002 13.992905
										CHANNELS 3 Xrotation Yrotation Zrotation
										End Site
										{
											OFFSET 0.000000 0.000000 0.100006
										}
									}
								}
							}
						}
					}
				}
			}
		}
	}
	JOINT RightUpLeg
	{
		OFFSET -5.535149 0.851454 -1.014999
		CHANNELS 3 Xrotation Yrotation Zrotation
		JOINT RightUpLegRoll
		{
			OFFSET 0.000000 -0.000003 16.407501
			CHANNELS 3 Xrotation Yrotation Zrotation
			JOINT RightLeg
			{
				OFFSET 0.000000 0.000003 -20.318100
				CHANNELS 3 Xrotation Yrotation Zrotation
				JOINT RightLegRoll
				{
					OFFSET 0.000000 -0.000003 20.384598
					CHANNELS 3 Xrotation Yrotation Zrotation
					JOINT RightFoot
					{
						OFFSET 0.000000 -0.000003 16.966805
						CHANNELS 3 Xrotation Yrotation Zrotation
						JOINT RightToeBase
						{
							OFFSET 0.000000 -0.000002 14.183395
							CHANNELS 3 Xrotation Yrotation Zrotation
							End Site
							{
								OFFSET 0.006012 0.791743 6.868896
							}
						}
					}
				}
			}
		}
	}
	JOINT LeftUpLeg
	{
		OFFSET 5.535149 0.851454 -1.014999
		CHANNELS 3 Xrotation Yrotation Zrotation
		JOINT LeftUpLegRoll
		{
			OFFSET 0.000000 -0.000003 16.407600
			CHANNELS 3 Xrotation Yrotation Zrotation
			JOINT LeftLeg
			{
				OFFSET 0.000000 -0.000003 20.318100
				CHANNELS 3 Xrotation Yrotation Zrotation
				JOINT LeftLegRoll
				{
					OFFSET 0.000000 -0.000004 20.573105
					CHANNELS 3 Xrotation Yrotation Zrotation
					JOINT LeftFoot
					{
						OFFSET 0.000000 -0.000003 16.778305
						CHANNELS 3 Xrotation Yrotation Zrotation
						JOINT LeftToeBase
						{
							OFFSET 0.000000 -0.000002 14.183395
							CHANNELS 3 Xrotation Yrotation Zrotation
							End Site
							{
								OFFSET -0.026943 0.791745 6.868896
							}
						}
					}
				}
			}
		}
	}
}
MOTION
Frames: 11
Frame Time: 0.041667
46.649399 11.235580 92.172791 6.582932 -0.876146 -1.054895 -2.497352 0.244587 -0.037124 -0.991774 0.490362 -0.065978 0.653328 0.489525 -0.071846 -9.848095 11.976571 2.274032 18.105602 -10.152756 1.123682 -18.549723 -28.368783 -21.950983 -103.081488 -136.740975 -79.265889 -0.000001 0.000001 0.000000 28.893357 -1.386144 -0.758360 0.000002 0.000015 -2.999997 -5.000269 -7.998753 0.000181 -26.328853 21.301448 33.878169 -116.105020 157.306305 84.057997 0.000002 -0.000005 0.000001 6.723961 -8.594448 0.904521 -0.000000 -0.000004 3.000001 -5.000339 7.999431 -0.000104 -14.091189 -169.799514 -0.584600 -179.999991 0.000004 -0.976989 162.651885 3.234219 -0.429310 -0.000005 0.000004 -0.355873 65.235096 7.037688 2.025531 25.456969 -7.355629 0.000005 -11.268496 166.856139 -2.051315 -0.000005 -0.000004 -1.020720 -17.077787 -3.339293 0.650656 0.000005 0.000002 -0.022736 67.811593 -6.755702 -2.556086 25.456861 7.355622 0.000007 
46.614799 11.196482 92.302689 6.590775 -0.849758 -1.019882 -2.490882 0.238488 -0.032987 -0.978851 0.478024 -0.057930 0.666250 0.477285 -0.063652 -10.138041 11.978328 2.285012 18.284422 -10.153233 1.114657 -18.643818 -28.644644 -22.088135 -102.621967 -136.386228 -79.142713 -0.000001 0.000000 -0.000002 28.677109 -1.525316 -0.728066 0.000001 0.000015 -3.000000 -5.000268 -7.998756 0.000179 -26.311764 21.693623 33.807579 -115.863846 156.829080 83.833380 0.000000 -0.000004 -0.000002 6.660733 -8.647637 0.909506 -0.000000 -0.000005 3.000003 -5.000338 7.999429 -0.000103 -14.123102 -169.976784 -0.579282 -179.999991 0.000005 -0.978983 162.669575 3.144773 -0.441258 -0.000004 0.000005 -0.343338 65.250047 7.029302 2.044322 25.456971 -7.355627 0.000005 -11.341342 166.987088 -2.007252 -0.000005 -0.000004 -1.015860 -17.119910 -3.296914 0.656808 0.000005 0.000001 -0.032282 67.876091 -6.754038 -2.556505 25.456863 7.355620 0.000003 
46.608200 11.184982 92.399101 6.598154 -0.819049 -0.984763 -2.484530 0.233114 -0.029153 -0.966172 0.467147 -0.050465 0.678928 0.466498 -0.056057 -10.411628 11.935759 2.284947 18.444408 -10.114229 1.098810 -18.738805 -28.955774 -22.225267 -102.210571 -136.045006 -79.060273 -0.000002 -0.000002 0.000000 28.442595 -1.670502 -0.696302 0.000000 0.000012 -3.000000 -5.000269 -7.998754 0.000182 -26.282401 22.060314 33.720552 -115.611757 156.324261 83.596331 0.000005 -0.000003 0.000001 6.609484 -8.701612 0.914548 0.000001 -0.000003 3.000002 -5.000337 7.999429 -0.000101 -14.155776 -170.159847 -0.574932 -179.999991 0.000005 -0.980991 162.679656 3.052314 -0.454651 -0.000004 0.000005 -0.330884 65.264288 7.021337 2.062147 25.456971 -7.355630 0.000005 -11.419200 167.111342 -1.967699 -0.000005 -0.000005 -1.010780 -17.175006 -3.251433 0.663419 0.000005 0.000001 -0.042343 67.943525 -6.752326 -2.556642 25.456858 7.355623 0.000002 
46.614700 11.139878 92.512802 6.605221 -0.784555 -0.949675 -2.478288 0.228309 -0.025593 -0.953712 0.457421 -0.043526 0.691387 0.456856 -0.049002 -10.670507 11.855743 2.274898 18.587600 -10.041359 1.076825 -18.834426 -29.298038 -22.361804 -101.843673 -135.715094 -79.014408 0.000002 -0.000002 -0.000002 28.193114 -1.820517 -0.663662 0.000003 0.000012 -3.000000 -5.000271 -7.998754 0.000181 -26.241710 22.406173 33.618994 -115.351049 155.795112 83.349994 0.000003 -0.000004 0.000002 6.569194 -8.755352 0.919620 0.000002 -0.000004 3.000001 -5.000340 7.999430 -0.000104 -14.189422 -170.348743 -0.571603 -179.999991 0.000006 -0.981989 162.682593 2.957829 -0.467228 -0.000004 0.000004 -0.318527 65.277976 7.013663 2.079482 25.456965 -7.355627 0.000004 -11.501549 167.228863 -1.931913 -0.000005 -0.000004 -1.005510 -17.241482 -3.203223 0.670461 0.000005 0.000000 -0.052827 68.013289 -6.750608 -2.556637 25.456865 7.355620 0.000004 
46.575001 11.123382 92.608002 6.612124 -0.746805 -0.914744 -2.472157 0.223922 -0.022275 -0.941449 0.448537 -0.037056 0.703647 0.448050 -0.042425 -10.916356 11.744638 2.256014 18.715861 -9.940506 1.049577 -18.930190 -29.667371 -22.497330 -101.517751 -135.394171 -79.000625 -0.000001 -0.000003 -0.000001 27.931739 -1.974152 -0.630696 0.000002 0.000014 -2.999997 -5.000266 -7.998756 0.000181 -26.190897 22.735702 33.504369 -115.084193 155.244790 83.097543 0.000003 -0.000003 -0.000001 6.538791 -8.807835 0.924702 -0.000000 -0.000004 3.000001 -5.000337 7.999428 -0.000103 -14.224446 -170.541504 -0.569869 -179.999991 0.000005 -0.982986 162.679397 2.862280 -0.479806 -0.000004 0.000005 -0.306278 65.291438 7.006327 2.095907 25.456971 -7.355629 0.000004 -11.587930 167.340646 -1.899355 -0.000005 -0.000004 -1.000110 -17.317738 -3.152646 0.677901 0.000005 0.000002 -0.063641 68.084951 -6.748880 -2.556515 25.456858 7.355621 0.000001 
46.516998 11.149680 92.708298 6.619015 -0.706336 -0.880114 -2.466108 0.219798 -0.019166 -0.929364 0.440185 -0.030996 0.715733 0.439772 -0.036267 -11.151049 11.609148 2.229693 18.831069 -9.817032 1.017836 -19.025804 -30.059748 -22.631236 -101.229011 -135.080159 -79.014456 0.000000 0.000000 -0.000002 27.661462 -2.130198 -0.597927 0.000000 0.000011 -3.000003 -5.000268 -7.998756 0.000185 -26.131105 23.053710 33.378742 -114.813431 154.676450 82.841944 0.000002 -0.000004 -0.000001 6.517223 -8.858038 0.929765 0.000002 -0.000005 2.999999 -5.000338 7.999432 -0.000104 -14.261052 -170.738146 -0.569770 -179.999991 0.000005 -0.983997 162.670681 2.765716 -0.492408 -0.000005 0.000004 -0.294153 65.304764 6.999245 2.111791 25.456971 -7.355628 0.000005 -11.677535 167.448604 -1.869738 -0.000005 -0.000005 -0.994597 -17.401877 -3.100086 0.685727 0.000006 0.000001 -0.074692 68.158014 -6.747229 -2.556226 25.456856 7.355620 0.000002 
46.496700 11.111081 92.794601 6.626046 -0.663679 -0.845922 -2.460126 0.215783 -0.016236 -0.917428 0.432058 -0.025290 0.727667 0.431713 -0.030464 -11.376268 11.455768 2.197387 18.935257 -9.676945 0.982693 -19.120657 -30.471024 -22.762982 -100.973316 -134.771230 -79.051161 -0.000001 -0.000001 0.000001 27.385456 -2.287427 -0.565793 0.000002 0.000012 -2.999999 -5.000271 -7.998751 0.000181 -26.063449 23.364726 33.243859 -114.541603 154.092988 82.586433 0.000002 -0.000003 0.000001 6.503452 -8.904953 0.934785 0.000004 -0.000004 3.000000 -5.000339 7.999433 -0.000102 -14.299493 -170.937710 -0.571612 -179.999991 0.000005 -0.983997 162.657089 2.669075 -0.504834 -0.000004 0.000004 -0.282165 65.317966 6.992457 2.126955 25.456967 -7.355625 0.000004 -11.770046 167.552737 -1.842311 -0.000005 -0.000004 -0.989026 -17.492410 -3.045899 0.693877 0.000006 0.000002 -0.085890 68.232026 -6.745574 -2.555784 25.456858 7.355619 0.000001 
46.520699 11.053383 92.895798 6.633379 -0.619367 -0.812305 -2.454228 0.211723 -0.013453 -0.905624 0.423844 -0.019879 0.739470 0.423566 -0.024955 -11.593917 11.290958 2.160690 19.030370 -9.525648 0.945070 -19.214348 -30.897208 -22.891849 -100.746404 -134.465620 -79.105748 0.000001 0.000001 0.000003 27.106893 -2.444584 -0.534691 -0.000002 0.000010 -2.999999 -5.000269 -7.998755 0.000184 -25.989365 23.673352 33.101416 -114.271653 153.497532 82.334652 0.000003 -0.000004 0.000003 6.496407 -8.947533 0.939719 0.000002 -0.000004 3.000000 -5.000339 7.999432 -0.000101 -14.339837 -171.141140 -0.575170 -179.999991 0.000005 -0.983997 162.639467 2.571444 -0.517409 -0.000003 0.000004 -0.270328 65.331415 6.985861 2.141648 25.456971 -7.355626 0.000006 -11.864854 167.653017 -1.816329 -0.000005 -0.000005 -0.983430 -17.587530 -2.990448 0.702316 0.000005 0.000002 -0.097139 68.306611 -6.743952 -2.555116 25.456856 7.355621 0.000003 
46.470600 11.043683 92.970100 6.641156 -0.573930 -0.779400 -2.448368 0.207463 -0.010784 -0.893926 0.415237 -0.014705 0.751168 0.415020 -0.019678 -11.805800 11.121250 2.121289 19.118324 -9.368909 0.906029 -19.306267 -31.334138 -23.017242 -100.544100 -134.161431 -79.173354 0.000000 -0.000002 -0.000000 26.828747 -2.600418 -0.504949 -0.000003 0.000013 -2.999999 -5.000271 -7.998755 0.000183 -25.910143 23.984312 32.953381 -114.006526 152.892828 82.089749 0.000004 -0.000004 -0.000002 6.495045 -8.984768 0.944535 0.000001 -0.000004 3.000000 -5.000341 7.999431 -0.000103 -14.382669 -171.346538 -0.581020 -179.999991 0.000006 -0.983997 162.618376 2.474738 -0.529615 -0.000004 0.000004 -0.258657 65.345171 6.979583 2.155689 25.456969 -7.355627 0.000004 -11.961199 167.752342 -1.791724 -0.000004 -0.000003 -0.977850 -17.685551 -2.934104 0.710994 0.000007 0.000001 -0.108350 68.381129 -6.742413 -2.554470 25.456860 7.355621 0.000001 
46.478600 10.993680 93.065590 6.649545 -0.527901 -0.747343 -2.442555 0.202850 -0.008199 -0.882311 0.405926 -0.009708 0.762780 0.405770 -0.014570 -12.013524 10.953071 2.080894 19.200971 -9.212408 0.866631 -19.395765 -31.777865 -23.138292 -100.361768 -133.857118 -79.248943 -0.000000 -0.000001 -0.000001 26.554061 -2.753633 -0.476865 0.000002 0.000014 -2.999999 -5.000270 -7.998753 0.000181 -25.827081 24.302254 32.801567 -113.749602 152.281759 81.855589 0.000004 -0.000003 0.000001 6.498305 -9.015644 0.949184 0.000002 -0.000002 2.999999 -5.000337 7.999433 -0.000102 -14.427994 -171.553902 -0.589180 -179.999991 0.000005 -0.983997 162.594607 2.378985 -0.542476 -0.000004 0.000004 -0.247166 65.359474 6.973426 2.169230 25.456972 -7.355627 0.000004 -12.058825 167.849754 -1.767507 -0.000005 -0.000003 -0.972325 -17.784969 -2.877217 0.719846 0.000005 0.000000 -0.119430 68.455270 -6.740934 -2.553561 25.456860 7.355622 0.000000 
46.431900 10.971980 93.132095 6.658676 -0.481812 -0.716273 -2.436776 0.197729 -0.005665 -0.870758 0.395602 -0.004832 0.774332 0.395506 -0.009570 -12.219099 10.792903 2.041388 19.280258 -9.061800 0.827963 -19.481979 -32.224276 -23.254120 -100.194668 -133.550921 -79.327149 -0.000000 0.000001 0.000003 26.286120 -2.902942 -0.450634 -0.000002 0.000016 -2.999999 -5.000270 -7.998753 0.000181 -25.741544 24.631829 32.647795 -113.504493 151.666878 81.635767 0.000003 -0.000003 0.000001 6.505132 -9.039138 0.953613 -0.000002 -0.000003 3.000000 -5.000340 7.999431 -0.000099 -14.476051 -171.762223 -0.599948 -179.999991 0.000006 -0.982986 162.568802 2.284183 -0.555026 -0.000005 0.000004 -0.235868 65.374343 6.967451 2.182375 25.456962 -7.355628 0.000005 -12.157031 167.947139 -1.743372 -0.000005 -0.000004 -0.966893 -17.883891 -2.820163 0.728791 0.000005 0.000001 -0.130285 68.528490 -6.739513 -2.552727 25.456863 7.355622 0.000004 
